  0
SECTION
  2
HEADER
  9
$ACADVER
  1
AC1009
  9
$INSBASE
 10
0
 20
0
 30
0
  9
$EXTMIN
 10
0
 20
0
  9
$EXTMAX
 10
420
 20
297
  9
$LIMMIN
 10
0
 20
0
  9
$LIMMAX
 10
420
 20
297
  9
$LTSCALE
 40
1
  0
ENDSEC
  0
SECTION
  2
TABLES
  0
TABLE
  2
LTYPE
 70
     9
  0
LTYPE
  2
CONTINUOUS
 70
    64
  3
実線
 72
    65
 73
     0
 40
0.0
  0
LTYPE
  2
DASHED1
 70
    64
  3
--  --  --  --  --  --  --  --  
 72
    65
 73
     2
 40
2.5
 49
1.25
 49
-1.25
  0
LTYPE
  2
DASHED2
 70
    64
  3
----    ----    ----    ----    
 72
    65
 73
     2
 40
5.0
 49
2.5
 49
-2.5
  0
LTYPE
  2
DASHED3
 70
    64
  3
------  ------  ------  ------  
 72
    65
 73
     2
 40
5.0
 49
3.75
 49
-1.25
  0
LTYPE
  2
CENTER1
 70
    64
  3
----- - ----- - ----- - ----- - 
 72
    65
 73
     4
 40
10.0
 49
6.25
 49
-1.25
 49
1.25
 49
-1.25
  0
LTYPE
  2
CENTER2
 70
    64
  3
----------  --  ----------  --  
 72
    65
 73
     4
 40
20.0
 49
12.5
 49
-2.5
 49
2.5
 49
-2.5
  0
LTYPE
  2
PHANTOM1
 70
    64
  3
--- - - --- - - --- - - --- - - 
 72
    65
 73
     6
 40
10.0
 49
3.25
 49
-1.25
 49
1.25
 49
-1.25
 49
1.25
 49
-1.25
  0
LTYPE
  2
PHANTOM2
 70
    64
  3
--------  -  -  --------  -  -  
 72
    65
 73
     6
 40
20.0
 49
10.0
 49
-2.5
 49
1.25
 49
-2.5
 49
1.25
 49
-2.5
  0
LTYPE
  2
DOT
 70
    64
  3
-   -   -   -   -   -   -   -   
 72
    65
 73
     2
 40
2.5
 49
0.625
 49
-1.875
  0
LTYPE
  2
DUMMY
 70
    64
  3
ダミー
 72
    65
 73
     0
 40
0.0
  0
LTYPE
  2
RAND1
 70
    64
  3
ランダム線1
 72
    65
 73
     4
 40
10.0
 49
1.0
 49
-2.0
 49
3.0
 49
-4.0
  0
LTYPE
  2
RAND2
 70
    64
  3
ランダム線2
 72
    65
 73
     4
 40
14.0
 49
2.0
 49
-3.0
 49
4.0
 49
-5.0
  0
LTYPE
  2
RAND3
 70
    64
  3
ランダム線3
 72
    65
 73
     4
 40
18.0
 49
3.0
 49
-4.0
 49
5.0
 49
-6.0
  0
LTYPE
  2
RAND4
 70
    64
  3
ランダム線4
 72
    65
 73
     4
 40
22.0
 49
4.0
 49
-5.0
 49
6.0
 49
-7.0
  0
LTYPE
  2
RAND5
 70
    64
  3
ランダム線5
 72
    65
 73
     4
 40
26.0
 49
5.0
 49
-6.0
 49
7.0
 49
-8.0
  0
LTYPE
  2
LONG1
 70
    64
  3
----------  --  ----------  --  
 72
    65
 73
     4
 40
40.0
 49
32.5
 49
-2.5
 49
2.5
 49
-2.5
  0
LTYPE
  2
LONG2
 70
    64
  3
--------  -  -  --------  -  -  
 72
    65
 73
     6
 40
40.0
 49
30.0
 49
-2.5
 49
1.25
 49
-2.5
 49
1.25
 49
-2.5
  0
LTYPE
  2
LONG3
 70
    64
  3
+++++++++++++++..+++++++++++++++
 72
    65
 73
     2
 40
40.0
 49
37.5
 49
-2.5
  0
LTYPE
  2
LONG4
 70
    64
  3
+++++++++++++++..+++++++++++++++
 72
    65
 73
     2
 40
80.0
 49
75.0
 49
-5.0
  0
LTYPE
  2
LONG5
 70
    64
  3
----------  --  ----------  --  
 72
    65
 73
     4
 40
60.0
 49
37.5
 49
-7.5
 49
7.5
 49
-7.5
  0
LTYPE
  2
dashed
 70
   64
  3
-------   -------------   ------
 72
   65
 73
    2
 40
7.5
 49
6
 49
-1.5
  0
LTYPE
  2
dashed_spaced
 70
   64
  3
----        --------        ----
 72
   65
 73
    2
 40
12
 49
6
 49
-6
  0
LTYPE
  2
long_dashed_dotted
 70
   64
  3
------------- --- --------------
 72
   65
 73
    4
 40
15.25
 49
12
 49
-1.5
 49
0.25
 49
-1.5
  0
LTYPE
  2
long_dashed_double-dotted
 70
   64
  3
----------- --- --- ------------
 72
   65
 73
    6
 40
17
 49
12
 49
-1.5
 49
0.25
 49
-1.5
 49
0.25
 49
-1.5
  0
LTYPE
  2
long_dashed_triplicate-dotted
 70
   64
  3
--------- --- --- --- ----------
 72
   65
 73
    8
 40
18.75
 49
12
 49
-1.5
 49
0.25
 49
-1.5
 49
0.25
 49
-1.5
 49
0.25
 49
-1.5
  0
LTYPE
  2
dotted
 70
   64
  3
   -       -       -       -    
 72
   65
 73
    2
 40
1.75
 49
0.25
 49
-1.5
  0
LTYPE
  2
chain
 70
   64
  3
-------------- -- --------------
 72
   65
 73
    4
 40
18.5
 49
12
 49
-1.5
 49
3.5
 49
-1.5
  0
LTYPE
  2
chain_double_dash
 70
   64
  3
------------ -- -- -------------
 72
   65
 73
    6
 40
23.5
 49
12
 49
-1.5
 49
3.5
 49
-1.5
 49
3.5
 49
-1.5
  0
LTYPE
  2
dashed_dotted
 70
   64
  3
-----------     -     ----------
 72
   65
 73
    4
 40
9.25
 49
6
 49
-1.5
 49
0.25
 49
-1.5
  0
LTYPE
  2
double-dashed_dotted
 70
   64
  3
------   -----------   -   -----
 72
   65
 73
    6
 40
16.75
 49
6
 49
-1.5
 49
6
 49
-1.5
 49
0.25
 49
-1.5
  0
LTYPE
  2
dashed_double-dotted
 70
   64
  3
---------    -    -    ---------
 72
   65
 73
    6
 40
11
 49
6
 49
-1.5
 49
0.25
 49
-1.5
 49
0.25
 49
-1.5
  0
LTYPE
  2
double-dashed_double-dotted
 70
   64
  3
-----   ---------   -   -   ----
 72
   65
 73
    8
 40
18.5
 49
6
 49
-1.5
 49
6
 49
-1.5
 49
0.25
 49
-1.5
 49
0.25
 49
-1.5
  0
LTYPE
  2
dashed_triplicate-dotted
 70
   64
  3
-------    -    -    -    ------
 72
   65
 73
    8
 40
12.75
 49
6
 49
-1.5
 49
0.25
 49
-1.5
 49
0.25
 49
-1.5
 49
0.25
 49
-1.5
  0
LTYPE
  2
double-dashed_triplicate-dotted
 70
   64
  3
-----  ---------  -  -  -  -----
 72
   65
 73
   10
 40
20.25
 49
6
 49
-1.5
 49
6
 49
-1.5
 49
0.25
 49
-1.5
 49
0.25
 49
-1.5
 49
0.25
 49
-1.5
  0
LTYPE
  2
undefined
 70
   64
  3
--------------------------------
 72
   65
 73
    0
 40
0
  0
LTYPE
  2
_
 70
   64
  3
                                
 72
   65
 73
    0
 40
0
  0
LTYPE
  2
__18
 70
   64
  3
                                
 72
   65
 73
    0
 40
0
  0
LTYPE
  2
__19
 70
   64
  3
                                
 72
   65
 73
    0
 40
0
  0
LTYPE
  2
__20
 70
   64
  3
                                
 72
   65
 73
    0
 40
0
  0
LTYPE
  2
__21
 70
   64
  3
                                
 72
   65
 73
    0
 40
0
  0
LTYPE
  2
__22
 70
   64
  3
                                
 72
   65
 73
    0
 40
0
  0
LTYPE
  2
__23
 70
   64
  3
                                
 72
   65
 73
    0
 40
0
  0
LTYPE
  2
__24
 70
   64
  3
                                
 72
   65
 73
    0
 40
0
  0
LTYPE
  2
__25
 70
   64
  3
                                
 72
   65
 73
    0
 40
0
  0
LTYPE
  2
__26
 70
   64
  3
                                
 72
   65
 73
    0
 40
0
  0
LTYPE
  2
__27
 70
   64
  3
                                
 72
   65
 73
    0
 40
0
  0
LTYPE
  2
__28
 70
   64
  3
                                
 72
   65
 73
    0
 40
0
  0
LTYPE
  2
__29
 70
   64
  3
                                
 72
   65
 73
    0
 40
0
  0
LTYPE
  2
__30
 70
   64
  3
                                
 72
   65
 73
    0
 40
0
  0
LTYPE
  2
__31
 70
   64
  3
                                
 72
   65
 73
    0
 40
0
  0
LTYPE
  2
__32
 70
   64
  3
                                
 72
   65
 73
    0
 40
0
  0
ENDTAB
  0
TABLE
  2
STYLE
  5
3
100
AcDbSymbolTable
 70
     1
  0
STYLE
  5
10
100
AcDbSymbolTableRecord
100
AcDbTextStyleTableRecord
  2
STANDARD
 70
     0
 40
0.0
 41
1.0
 50
0.0
 71
     0
 42
0.2
  3
txt
  4
bigfont.shx
  0
STYLE
  5
26
100
AcDbSymbolTableRecord
100
AcDbTextStyleTableRecord
  2
TATEGAKI
 70
    68
 40
0.0
 41
1.0
 50
0.0
 71
     0
 42
1.0
  3
txt
  4
bigfont.shx
  0
ENDTAB
  0
TABLE
  2
LAYER
 70
    8
  0
LAYER
  2
_0-0_
 70
   64
 62
    7
  6
CONTINUOUS
  0
LAYER
  2
_0-4_
 70
   64
 62
    7
  6
CONTINUOUS
  0
LAYER
  2
_0-8_
 70
   64
 62
    7
  6
CONTINUOUS
  0
LAYER
  2
_8-0_Outline
 70
   64
 62
    7
  6
CONTINUOUS
  0
LAYER
  2
_8-4_Machining
 70
   64
 62
    7
  6
CONTINUOUS
  0
LAYER
  2
_8-8_Dimension_Outline
 70
   64
 62
    7
  6
CONTINUOUS
  0
LAYER
  2
_8-c_Dimension_Machining
 70
   64
 62
    7
  6
CONTINUOUS
  0
LAYER
  2
ADD_LINE
 70
   64
 62
    7
  6
CONTINUOUS
  0
ENDTAB
  0
ENDSEC
  0
SECTION
  2
BLOCKS
  0
ENDSEC
  0
SECTION
  2
ENTITIES
  0
LINE
  8
_0-8_
  6
CENTER1
 62
    4
 10
141.53067484662577
 20
253.94096795662824
 11
141.53067484662577
 21
270.57747925407921
  0
LINE
  8
_0-8_
  6
CENTER1
 62
    4
 10
132.60490371863347
 20
261.59202453987729
 11
150.62779095753865
 21
261.59202453987729
  0
CIRCLE
  8
_0-4_
  6
CONTINUOUS
 62
    7
 10
141.53067484662577
 20
261.59202453987729
 40
4.75
  0
CIRCLE
  8
_0-4_
  6
CONTINUOUS
 62
    7
 10
141.53067484662577
 20
261.59202453987729
 40
6.25
  0
TEXT
  8
_8-c_Dimension_Machining
 62
    4
 10
138.32434545979942
 20
260.39554994366171
 40
2.5
 41
1
 50
30.000000000000025
  1
φ9.5
  0
LINE
  8
_8-c_Dimension_Machining
  6
CONTINUOUS
 62
    4
 10
137.41705417864969
 20
259.21702453987729
 11
140.31483165751689
 21
259.99348167518485
  0
LINE
  8
_8-c_Dimension_Machining
  6
CONTINUOUS
 62
    4
 10
137.41705417864969
 20
259.21702453987729
 11
139.53837452220932
 21
261.33834488343695
  0
LINE
  8
_8-c_Dimension_Machining
  6
CONTINUOUS
 62
    4
 10
145.64429551460185
 20
263.96702453987729
 11
142.74651803573465
 21
263.19056740456972
  0
LINE
  8
_8-c_Dimension_Machining
  6
CONTINUOUS
 62
    4
 10
145.64429551460185
 20
263.96702453987729
 11
143.52297517104222
 21
261.84570419631763
  0
LINE
  8
_8-c_Dimension_Machining
  6
CONTINUOUS
 62
    4
 10
145.64429551460185
 20
263.96702453987729
 11
137.41705417864969
 21
259.21702453987729
  0
LINE
  8
_8-c_Dimension_Machining
  6
CENTER1
 62
    4
 10
141.53067484662577
 20
270.57747925407921
 11
141.53067484662577
 21
253.94096795662824
  0
CIRCLE
  8
_8-4_Machining
  6
CONTINUOUS
 62
    7
 10
141.53067484662577
 20
261.59202453987729
 40
4.75
  0
LINE
  8
_8-c_Dimension_Machining
  6
CENTER1
 62
    4
 10
132.60490371863347
 20
261.59202453987729
 11
150.62779095753865
 21
261.59202453987729
  0
LINE
  8
_8-c_Dimension_Machining
  6
CONTINUOUS
 62
    4
 10
156.03751647925867
 20
266.09202453987729
 11
144.53067484662577
 21
266.09202453987729
  0
LINE
  8
_0-4_
  6
CONTINUOUS
 62
    7
 10
149.11646128425269
 20
270.59202453987729
 11
150.53067484662577
 21
269.17781097750418
  0
LINE
  8
_0-4_
  6
CONTINUOUS
 62
    7
 10
150.53067484662577
 20
254.00623810225039
 11
150.53067484662577
 21
269.17781097750418
  0
LINE
  8
_0-4_
  6
CONTINUOUS
 62
    7
 10
150.53067484662577
 20
254.00623810225039
 11
149.11646128425269
 21
252.59202453987729
  0
LINE
  8
_0-4_
  6
CONTINUOUS
 62
    7
 10
133.94488840899885
 20
252.59202453987729
 11
149.11646128425269
 21
252.59202453987729
  0
LINE
  8
_0-4_
  6
CONTINUOUS
 62
    7
 10
133.94488840899885
 20
252.59202453987729
 11
132.53067484662577
 21
254.00623810225039
  0
LINE
  8
_0-4_
  6
CONTINUOUS
 62
    7
 10
132.53067484662577
 20
269.17781097750418
 11
132.53067484662577
 21
254.00623810225039
  0
LINE
  8
_0-4_
  6
CONTINUOUS
 62
    7
 10
133.94488840899885
 20
270.59202453987729
 11
149.11646128425269
 21
270.59202453987729
  0
LINE
  8
_0-4_
  6
CONTINUOUS
 62
    7
 10
132.53067484662577
 20
269.17781097750418
 11
133.94488840899885
 21
270.59202453987729
  0
LINE
  8
_8-c_Dimension_Machining
  6
CENTER1
 62
    4
 10
147.88067484662577
 20
256.66184640196195
 11
147.88067484662577
 21
254.04896824350553
  0
LINE
  8
_8-c_Dimension_Machining
  6
CENTER1
 62
    4
 10
135.18067484662578
 20
256.66184640196195
 11
135.18067484662578
 21
254.04896824350553
  0
LINE
  8
_8-c_Dimension_Machining
  6
CENTER1
 62
    4
 10
133.7907669595526
 20
255.24202453987729
 11
136.82170562336199
 21
255.24202453987729
  0
LINE
  8
_8-c_Dimension_Machining
  6
CENTER1
 62
    4
 10
133.7907669595526
 20
267.94202453987725
 11
136.82170562336199
 21
267.94202453987725
  0
LINE
  8
_8-c_Dimension_Machining
  6
CENTER1
 62
    4
 10
146.22806699380499
 20
255.24202453987729
 11
149.0499754049379
 21
255.24202453987729
  0
LINE
  8
_8-c_Dimension_Machining
  6
CENTER1
 62
    4
 10
146.22806699380499
 20
267.94202453987725
 11
149.0499754049379
 21
267.94202453987725
  0
LINE
  8
_8-c_Dimension_Machining
  6
CENTER1
 62
    4
 10
147.88067484662577
 20
270.03978257325861
 11
147.88067484662577
 21
265.75466239339016
  0
LINE
  8
_8-c_Dimension_Machining
  6
CENTER1
 62
    4
 10
135.18067484662578
 20
270.03978257325861
 11
135.18067484662578
 21
266.48626827775792
  0
CIRCLE
  8
_0-4_
  6
CONTINUOUS
 62
    7
 10
135.18067484662578
 20
267.94202453987725
 40
1.6000000000000001
  0
CIRCLE
  8
_0-4_
  6
CONTINUOUS
 62
    7
 10
147.88067484662577
 20
267.94202453987725
 40
1.6000000000000001
  0
CIRCLE
  8
_0-4_
  6
CONTINUOUS
 62
    7
 10
147.88067484662577
 20
255.24202453987729
 40
1.6000000000000001
  0
CIRCLE
  8
_0-4_
  6
CONTINUOUS
 62
    7
 10
135.18067484662578
 20
255.24202453987729
 40
1.6000000000000001
  0
LINE
  8
_8-c_Dimension_Machining
  6
CONTINUOUS
 62
    4
 10
33.530674846625772
 20
293.39263427302495
 11
33.530674846625772
 21
275.35475444237005
  0
LINE
  8
_0-0_
  6
CONTINUOUS
 62
    7
 10
187.53067484662577
 20
281.59202453987729
 11
187.53067484662577
 21
249.59202453987729
  0
LINE
  8
_0-0_
  6
CONTINUOUS
 62
    7
 10
187.53067484662577
 20
249.59202453987729
 11
412.53067484662574
 21
249.59202453987729
  0
LINE
  8
_0-0_
  6
CONTINUOUS
 62
    7
 10
412.53067484662574
 20
249.59202453987729
 11
412.53067484662574
 21
281.59202453987729
  0
LINE
  8
_0-0_
  6
CONTINUOUS
 62
    7
 10
412.53067484662574
 20
281.59202453987729
 11
187.53067484662577
 21
281.59202453987729
  0
LINE
  8
_0-0_
  6
CONTINUOUS
 62
    7
 10
162.53067484662577
 20
281.59202453987729
 11
12.530674846625772
 21
281.59202453987729
  0
LINE
  8
_0-0_
  6
CONTINUOUS
 62
    7
 10
412.53067484662574
 20
273.59202453987729
 11
187.53067484662577
 21
273.59202453987729
  0
LINE
  8
_0-0_
  6
CONTINUOUS
 62
    7
 10
412.53067484662574
 20
269.59202453987729
 11
187.53067484662577
 21
269.59202453987729
  0
ARC
  8
_0-0_
  6
CONTINUOUS
 62
    7
 10
147.53067484662577
 20
214.59202453987729
 40
15
 50
0
 51
90
  0
ARC
  8
_0-0_
  6
CONTINUOUS
 62
    7
 10
27.530674846625772
 20
214.59202453987729
 40
15
 50
90
 51
180
  0
LINE
  8
_0-0_
  6
CONTINUOUS
 62
    7
 10
162.53067484662577
 20
19.592024539877286
 11
162.53067484662577
 21
214.59202453987729
  0
ARC
  8
_0-0_
  6
CONTINUOUS
 62
    7
 10
147.53067484662577
 20
19.592024539877286
 40
15
 50
270
 51
0
  0
LINE
  8
_0-0_
  6
CONTINUOUS
 62
    7
 10
27.530674846625772
 20
4.5920245398772863
 11
147.53067484662577
 21
4.5920245398772863
  0
LINE
  8
_0-0_
  6
CONTINUOUS
 62
    7
 10
12.530674846625772
 20
19.592024539877286
 11
12.530674846625772
 21
214.59202453987729
  0
ARC
  8
_0-0_
  6
CONTINUOUS
 62
    7
 10
27.530674846625772
 20
19.592024539877286
 40
15
 50
180
 51
270
  0
LINE
  8
_0-0_
  6
DASHED1
 62
    7
 10
162.53067484662577
 20
251.09202453987729
 11
12.530674846625772
 21
251.09202453987729
  0
LINE
  8
_0-0_
  6
CONTINUOUS
 62
    7
 10
11.330674846625783
 20
251.99202453987732
 11
11.330674846625783
 21
249.59202453987729
  0
LINE
  8
_0-0_
  6
CONTINUOUS
 62
    7
 10
163.73067484662579
 20
249.59202453987729
 11
163.73067484662579
 21
251.99202453987732
  0
LINE
  8
_0-0_
  6
CONTINUOUS
 62
    7
 10
11.330674846625783
 20
249.59202453987729
 11
163.73067484662576
 21
249.59202453987729
  0
LINE
  8
_0-0_
  6
CONTINUOUS
 62
    7
 10
11.330674846625783
 20
251.99202453987732
 11
163.73067484662576
 21
251.99202453987732
  0
LINE
  8
_0-0_
  6
CONTINUOUS
 62
    7
 10
162.53067484662577
 20
251.99202453987732
 11
162.53067484662577
 21
281.59202453987729
  0
LINE
  8
_0-0_
  6
CONTINUOUS
 62
    7
 10
12.530674846625772
 20
281.59202453987729
 11
12.530674846625772
 21
251.99202453987732
  0
LINE
  8
_0-0_
  6
CONTINUOUS
 62
    7
 10
163.73067484662576
 20
273.59202453987729
 11
163.73067484662576
 21
269.59202453987729
  0
LINE
  8
_0-0_
  6
CONTINUOUS
 62
    7
 10
163.73067484662576
 20
273.59202453987729
 11
11.330674846625783
 21
273.59202453987729
  0
LINE
  8
_0-0_
  6
CONTINUOUS
 62
    7
 10
11.330674846625783
 20
273.59202453987729
 11
11.330674846625783
 21
269.59202453987729
  0
LINE
  8
_0-0_
  6
CONTINUOUS
 62
    7
 10
27.530674846625772
 20
229.59202453987729
 11
147.53067484662577
 21
229.59202453987729
  0
LINE
  8
_8-c_Dimension_Machining
  6
CONTINUOUS
 62
    4
 10
12.530674846625772
 20
281.59202453987729
 11
5.1214422823591406
 21
281.59202453987729
  0
LINE
  8
_8-c_Dimension_Machining
  6
CONTINUOUS
 62
    4
 10
11.330674846625783
 20
249.59202453987729
 11
5.3433851481049146
 21
249.59202453987729
  0
LINE
  8
_8-c_Dimension_Machining
  6
CONTINUOUS
 62
    4
 10
163.73067484662576
 20
249.59202453987729
 11
163.73067484662576
 21
239.23606082276336
  0
LINE
  8
_8-c_Dimension_Machining
  6
CONTINUOUS
 62
    4
 10
11.330674846625783
 20
249.59202453987729
 11
11.330674846625783
 21
241.45548948022133
  0
LINE
  8
_8-c_Dimension_Machining
  6
CONTINUOUS
 62
    4
 10
12.530674846625772
 20
281.59202453987729
 11
12.530674846625772
 21
291.17069140727915
  0
LINE
  8
_8-c_Dimension_Machining
  6
CONTINUOUS
 62
    4
 10
162.53067484662577
 20
281.59202453987729
 11
162.53067484662577
 21
295.38760585644923
  0
TEXT
  8
_8-c_Dimension_Machining
 62
    4
 10
123.13067484662577
 20
244.69944654750364
 40
2.5
 41
1
 50
0
  1
76.2
  0
LINE
  8
_8-c_Dimension_Machining
  6
CONTINUOUS
 62
    4
 10
163.73067484662576
 20
243.69944654750364
 11
160.83289736775856
 21
244.47590368281121
  0
LINE
  8
_8-c_Dimension_Machining
  6
CONTINUOUS
 62
    4
 10
163.73067484662576
 20
243.69944654750364
 11
160.83289736775856
 21
242.92298941219607
  0
LINE
  8
_8-c_Dimension_Machining
  6
CONTINUOUS
 62
    4
 10
87.530674846625772
 20
243.69944654750364
 11
90.42845232549297
 21
242.92298941219607
  0
LINE
  8
_8-c_Dimension_Machining
  6
CONTINUOUS
 62
    4
 10
87.530674846625772
 20
243.69944654750364
 11
90.42845232549297
 21
244.47590368281121
  0
LINE
  8
_8-c_Dimension_Machining
  6
CONTINUOUS
 62
    4
 10
87.530674846625772
 20
243.69944654750364
 11
163.73067484662576
 21
243.69944654750364
  0
TEXT
  8
_8-c_Dimension_Machining
 62
    4
 10
46.930674846625777
 20
244.69944654750364
 40
2.5
 41
1
 50
0
  1
76.2
  0
LINE
  8
_8-c_Dimension_Machining
  6
CONTINUOUS
 62
    4
 10
87.530674846625772
 20
243.19944654750364
 11
87.530674846625772
 21
245.35879031954534
  0
LINE
  8
_8-c_Dimension_Machining
  6
CONTINUOUS
 62
    4
 10
11.330674846625783
 20
243.19944654750364
 11
11.330674846625783
 21
247.59202453987729
  0
LINE
  8
_8-c_Dimension_Machining
  6
CONTINUOUS
 62
    4
 10
87.530674846625772
 20
243.69944654750364
 11
84.632897367758574
 21
244.47590368281121
  0
LINE
  8
_8-c_Dimension_Machining
  6
CONTINUOUS
 62
    4
 10
87.530674846625772
 20
243.69944654750364
 11
84.632897367758574
 21
242.92298941219607
  0
LINE
  8
_8-c_Dimension_Machining
  6
CONTINUOUS
 62
    4
 10
11.330674846625783
 20
243.69944654750364
 11
14.228452325492981
 21
242.92298941219607
  0
LINE
  8
_8-c_Dimension_Machining
  6
CONTINUOUS
 62
    4
 10
11.330674846625783
 20
243.69944654750364
 11
14.228452325492981
 21
244.47590368281121
  0
LINE
  8
_8-c_Dimension_Machining
  6
CONTINUOUS
 62
    4
 10
11.330674846625783
 20
243.69944654750364
 11
87.530674846625772
 21
243.69944654750364
  0
LINE
  8
_0-8_
  6
CENTER1
 62
    4
 10
87.530674846625772
 20
287.61042944785277
 11
87.530674846625772
 21
243.80674846625766
  0
LINE
  8
_0-8_
  6
CENTER1
 62
    4
 10
33.530674846625772
 20
253.66369276833737
 11
33.530674846625772
 21
270.85475444237005
  0
LINE
  8
_0-8_
  6
CENTER1
 62
    4
 10
41.163165264617248
 20
261.59202453987729
 11
23.140278025712007
 21
261.59202453987729
  0
CIRCLE
  8
_0-4_
  6
CONTINUOUS
 62
    7
 10
33.530674846625772
 20
261.59202453987729
 40
4.75
  0
CIRCLE
  8
_0-4_
  6
CONTINUOUS
 62
    7
 10
33.530674846625772
 20
261.59202453987729
 40
6.25
  0
CIRCLE
  8
_0-4_
  6
CONTINUOUS
 62
    7
 10
59.530674846625772
 20
266.09202453987729
 40
6
  0
CIRCLE
  8
_0-4_
  6
CONTINUOUS
 62
    7
 10
59.530674846625772
 20
266.09202453987729
 40
7
  0
CIRCLE
  8
_0-4_
  6
CONTINUOUS
 62
    7
 10
59.530674846625772
 20
266.09202453987729
 40
10
  0
CIRCLE
  8
_0-4_
  6
CONTINUOUS
 62
    7
 10
115.53067484662577
 20
266.09202453987729
 40
6
  0
CIRCLE
  8
_0-4_
  6
CONTINUOUS
 62
    7
 10
115.53067484662577
 20
266.09202453987729
 40
7
  0
CIRCLE
  8
_0-4_
  6
CONTINUOUS
 62
    7
 10
115.53067484662577
 20
266.09202453987729
 40
10
  0
CIRCLE
  8
_0-4_
  6
CONTINUOUS
 62
    7
 10
87.530674846625772
 20
266.09202453987729
 40
10.5
  0
LINE
  8
_0-4_
  6
CONTINUOUS
 62
    7
 10
92.530674846625772
 20
274.4623590612689
 11
92.530674846625772
 21
257.72169001848567
  0
LINE
  8
_0-4_
  6
CONTINUOUS
 62
    7
 10
82.530674846625772
 20
274.4623590612689
 11
82.530674846625772
 21
257.72169001848567
  0
CIRCLE
  8
_0-4_
  6
CONTINUOUS
 62
    7
 10
87.530674846625772
 20
266.09202453987729
 40
11
  0
ARC
  8
_0-4_
  6
CONTINUOUS
 62
    7
 10
87.530674846625772
 20
266.09202453987729
 40
9.75
 50
239.14811401393467
 51
300.85188598606533
  0
ARC
  8
_0-4_
  6
CONTINUOUS
 62
    7
 10
87.530674846625772
 20
266.09202453987729
 40
9.75
 50
59.148114013934631
 51
120.85188598606537
  0
TEXT
  8
_8-c_Dimension_Machining
 62
    4
 10
77.976104219137596
 20
257.34202453987729
 40
2.5
 41
1
 50
90
  1
12.5
  0
LINE
  8
_8-c_Dimension_Machining
  6
CONTINUOUS
 62
    4
 10
78.476104219137596
 20
266.09202453987729
 11
79.036109569321894
 21
266.09202453987729
  0
LINE
  8
_8-c_Dimension_Machining
  6
CONTINUOUS
 62
    4
 10
78.476104219137596
 20
253.59202453987729
 11
79.036109569321894
 21
253.59202453987729
  0
LINE
  8
_8-c_Dimension_Machining
  6
CONTINUOUS
 62
    4
 10
78.976104219137596
 20
266.09202453987729
 11
78.19964708383003
 21
263.19424706101006
  0
LINE
  8
_8-c_Dimension_Machining
  6
CONTINUOUS
 62
    4
 10
78.976104219137596
 20
266.09202453987729
 11
79.752561354445163
 21
263.19424706101006
  0
LINE
  8
_8-c_Dimension_Machining
  6
CONTINUOUS
 62
    4
 10
78.976104219137596
 20
253.59202453987729
 11
79.752561354445163
 21
256.48980201874451
  0
LINE
  8
_8-c_Dimension_Machining
  6
CONTINUOUS
 62
    4
 10
78.976104219137596
 20
253.59202453987729
 11
78.19964708383003
 21
256.48980201874451
  0
LINE
  8
_8-c_Dimension_Machining
  6
CONTINUOUS
 62
    4
 10
78.976104219137596
 20
253.59202453987729
 11
78.976104219137596
 21
266.09202453987729
  0
LINE
  8
_8-c_Dimension_Machining
  6
CENTER1
 62
    4
 10
77.595981164898575
 20
253.59202453987729
 11
92.417302660421868
 21
253.59202453987729
  0
TEXT
  8
_8-c_Dimension_Machining
 62
    4
 10
127.28067484662577
 20
293.89263427302495
 40
2.5
 41
1
 50
0
  1
26
  0
LINE
  8
_8-c_Dimension_Machining
  6
CONTINUOUS
 62
    4
 10
141.53067484662577
 20
293.39263427302495
 11
141.53067484662577
 21
275.07747925407921
  0
LINE
  8
_8-c_Dimension_Machining
  6
CONTINUOUS
 62
    4
 10
141.53067484662577
 20
292.89263427302495
 11
138.63289736775857
 21
293.66909140833252
  0
LINE
  8
_8-c_Dimension_Machining
  6
CONTINUOUS
 62
    4
 10
141.53067484662577
 20
292.89263427302495
 11
138.63289736775857
 21
292.11617713771739
  0
LINE
  8
_8-c_Dimension_Machining
  6
CONTINUOUS
 62
    4
 10
115.53067484662577
 20
292.89263427302495
 11
118.42845232549297
 21
292.11617713771739
  0
LINE
  8
_8-c_Dimension_Machining
  6
CONTINUOUS
 62
    4
 10
115.53067484662577
 20
292.89263427302495
 11
118.42845232549297
 21
293.66909140833252
  0
LINE
  8
_8-c_Dimension_Machining
  6
CONTINUOUS
 62
    4
 10
115.53067484662577
 20
292.89263427302495
 11
141.53067484662577
 21
292.89263427302495
  0
TEXT
  8
_8-c_Dimension_Machining
 62
    4
 10
100.28067484662577
 20
293.89263427302495
 40
2.5
 41
1
 50
0
  1
28
  0
LINE
  8
_8-c_Dimension_Machining
  6
CONTINUOUS
 62
    4
 10
115.53067484662577
 20
293.39263427302495
 11
115.53067484662577
 21
285.29549098573523
  0
LINE
  8
_8-c_Dimension_Machining
  6
CONTINUOUS
 62
    4
 10
115.53067484662577
 20
292.89263427302495
 11
112.63289736775857
 21
293.66909140833252
  0
LINE
  8
_8-c_Dimension_Machining
  6
CONTINUOUS
 62
    4
 10
115.53067484662577
 20
292.89263427302495
 11
112.63289736775857
 21
292.11617713771739
  0
LINE
  8
_8-c_Dimension_Machining
  6
CONTINUOUS
 62
    4
 10
87.530674846625772
 20
292.89263427302495
 11
90.42845232549297
 21
292.11617713771739
  0
LINE
  8
_8-c_Dimension_Machining
  6
CONTINUOUS
 62
    4
 10
87.530674846625772
 20
292.89263427302495
 11
90.42845232549297
 21
293.66909140833252
  0
LINE
  8
_8-c_Dimension_Machining
  6
CONTINUOUS
 62
    4
 10
87.530674846625772
 20
292.89263427302495
 11
115.53067484662577
 21
292.89263427302495
  0
TEXT
  8
_8-c_Dimension_Machining
 62
    4
 10
72.280674846625772
 20
293.89263427302495
 40
2.5
 41
1
 50
0
  1
28
  0
LINE
  8
_8-c_Dimension_Machining
  6
CONTINUOUS
 62
    4
 10
87.530674846625772
 20
293.39263427302495
 11
87.530674846625772
 21
278.20359817832815
  0
LINE
  8
_8-c_Dimension_Machining
  6
CONTINUOUS
 62
    4
 10
87.530674846625772
 20
292.89263427302495
 11
84.632897367758574
 21
293.66909140833252
  0
LINE
  8
_8-c_Dimension_Machining
  6
CONTINUOUS
 62
    4
 10
87.530674846625772
 20
292.89263427302495
 11
84.632897367758574
 21
292.11617713771739
  0
LINE
  8
_8-c_Dimension_Machining
  6
CONTINUOUS
 62
    4
 10
59.530674846625772
 20
292.89263427302495
 11
62.42845232549297
 21
292.11617713771739
  0
LINE
  8
_8-c_Dimension_Machining
  6
CONTINUOUS
 62
    4
 10
59.530674846625772
 20
292.89263427302495
 11
62.42845232549297
 21
293.66909140833252
  0
LINE
  8
_8-c_Dimension_Machining
  6
CONTINUOUS
 62
    4
 10
59.530674846625772
 20
292.89263427302495
 11
87.530674846625772
 21
292.89263427302495
  0
TEXT
  8
_8-c_Dimension_Machining
 62
    4
 10
45.280674846625772
 20
293.89263427302495
 40
2.5
 41
1
 50
0
  1
26
  0
LINE
  8
_8-c_Dimension_Machining
  6
CONTINUOUS
 62
    4
 10
59.530674846625772
 20
293.39263427302495
 11
59.530674846625772
 21
285.29549098573523
  0
LINE
  8
_8-c_Dimension_Machining
  6
CONTINUOUS
 62
    4
 10
59.530674846625772
 20
292.89263427302495
 11
56.632897367758574
 21
293.66909140833252
  0
LINE
  8
_8-c_Dimension_Machining
  6
CONTINUOUS
 62
    4
 10
59.530674846625772
 20
292.89263427302495
 11
56.632897367758574
 21
292.11617713771739
  0
LINE
  8
_8-c_Dimension_Machining
  6
CONTINUOUS
 62
    4
 10
33.530674846625772
 20
292.89263427302495
 11
36.42845232549297
 21
292.11617713771739
  0
LINE
  8
_8-c_Dimension_Machining
  6
CONTINUOUS
 62
    4
 10
33.530674846625772
 20
292.89263427302495
 11
36.42845232549297
 21
293.66909140833252
  0
LINE
  8
_8-c_Dimension_Machining
  6
CONTINUOUS
 62
    4
 10
33.530674846625772
 20
292.89263427302495
 11
59.530674846625772
 21
292.89263427302495
  0
LINE
  8
_8-c_Dimension_Machining
  6
CENTER1
 62
    4
 10
66.530674846625772
 20
269.97357816503813
 11
66.530674846625772
 21
262.68383111290683
  0
LINE
  8
_8-c_Dimension_Machining
  6
CENTER1
 62
    4
 10
59.530674846625772
 20
273.09202453987729
 11
59.530674846625772
 21
259.65432584448865
  0
TEXT
  8
_8-c_Dimension_Machining
 62
    4
 10
125.84118662327728
 20
269.15804994366169
 40
2.5
 41
1
 50
30.000000000000323
  1
4-φ2.8
  0
LINE
  8
_8-c_Dimension_Machining
  6
CONTINUOUS
 62
    4
 10
89.046219303248535
 20
254.46702453987729
 11
91.943996782115732
 21
255.24348167518485
  0
LINE
  8
_8-c_Dimension_Machining
  6
CONTINUOUS
 62
    4
 10
89.046219303248535
 20
254.46702453987729
 11
91.16753964680818
 21
256.58834488343695
  0
LINE
  8
_8-c_Dimension_Machining
  6
CONTINUOUS
 62
    4
 10
86.015130390003009
 20
252.71702453987729
 11
83.117352911135811
 21
251.94056740456972
  0
LINE
  8
_8-c_Dimension_Machining
  6
CONTINUOUS
 62
    4
 10
86.015130390003009
 20
252.71702453987729
 11
83.893810046443363
 21
250.59570419631763
  0
LINE
  8
_8-c_Dimension_Machining
  6
CONTINUOUS
 62
    4
 10
81.685003371080825
 20
250.21702453987729
 11
86.015130390003009
 21
252.71702453987729
  0
LINE
  8
_8-c_Dimension_Machining
  6
CONTINUOUS
 62
    4
 10
89.046219303248535
 20
254.46702453987729
 11
98.139486042985141
 21
259.71702453987729
  0
TEXT
  8
_8-c_Dimension_Machining
 62
    4
 10
92.226827269332389
 20
257.45804994366171
 40
2.5
 41
1
 50
30.000000000000025
  1
φ3.5
  0
LINE
  8
_8-c_Dimension_Machining
  6
CONTINUOUS
 62
    4
 10
86.015130390003009
 20
252.71702453987729
 11
89.046219303248535
 21
254.46702453987729
  0
LINE
  8
_8-c_Dimension_Machining
  6
CONTINUOUS
 62
    4
 10
123.74311041192398
 20
266.79202453987727
 11
126.64088789079118
 21
267.5684816751849
  0
LINE
  8
_8-c_Dimension_Machining
  6
CONTINUOUS
 62
    4
 10
123.74311041192398
 20
266.79202453987727
 11
125.86443075548361
 21
268.91334488343693
  0
LINE
  8
_8-c_Dimension_Machining
  6
CONTINUOUS
 62
    4
 10
121.31823928132756
 20
265.3920245398773
 11
118.42046180246037
 21
264.61556740456967
  0
LINE
  8
_8-c_Dimension_Machining
  6
CONTINUOUS
 62
    4
 10
121.31823928132756
 20
265.3920245398773
 11
119.19691893776793
 21
263.27070419631764
  0
LINE
  8
_8-c_Dimension_Machining
  6
CONTINUOUS
 62
    4
 10
116.98811226240538
 20
262.8920245398773
 11
121.31823928132756
 21
265.3920245398773
  0
LINE
  8
_8-c_Dimension_Machining
  6
CONTINUOUS
 62
    4
 10
123.74311041192398
 20
266.79202453987727
 11
132.83637715166057
 21
272.04202453987733
  0
LINE
  8
_8-c_Dimension_Machining
  6
CONTINUOUS
 62
    4
 10
121.31823928132756
 20
265.3920245398773
 11
123.74311041192398
 21
266.79202453987727
  0
LINE
  8
_8-c_Dimension_Machining
  6
CONTINUOUS
 62
    4
 10
111.41705417864969
 20
263.71702453987729
 11
114.31483165751689
 21
264.49348167518485
  0
LINE
  8
_8-c_Dimension_Machining
  6
CONTINUOUS
 62
    4
 10
111.41705417864969
 20
263.71702453987729
 11
113.53837452220934
 21
265.83834488343695
  0
LINE
  8
_8-c_Dimension_Machining
  6
CONTINUOUS
 62
    4
 10
119.64429551460185
 20
268.46702453987729
 11
116.74651803573465
 21
267.69056740456972
  0
LINE
  8
_8-c_Dimension_Machining
  6
CONTINUOUS
 62
    4
 10
119.64429551460185
 20
268.46702453987729
 11
117.52297517104221
 21
266.34570419631763
  0
TEXT
  8
_8-c_Dimension_Machining
 62
    4
 10
112.3243454597994
 20
265.39554994366171
 40
2.5
 41
1
 50
30.000000000000025
  1
φ9.5
  0
LINE
  8
_8-c_Dimension_Machining
  6
CONTINUOUS
 62
    4
 10
119.64429551460185
 20
268.46702453987729
 11
111.41705417864969
 21
263.71702453987729
  0
LINE
  8
_8-c_Dimension_Machining
  6
CONTINUOUS
 62
    4
 10
55.417054178649693
 20
263.71702453987729
 11
58.314831657516891
 21
264.49348167518485
  0
LINE
  8
_8-c_Dimension_Machining
  6
CONTINUOUS
 62
    4
 10
55.417054178649693
 20
263.71702453987729
 11
57.538374522209324
 21
265.83834488343695
  0
LINE
  8
_8-c_Dimension_Machining
  6
CONTINUOUS
 62
    4
 10
63.644295514601851
 20
268.46702453987729
 11
60.746518035734653
 21
267.69056740456972
  0
LINE
  8
_8-c_Dimension_Machining
  6
CONTINUOUS
 62
    4
 10
63.644295514601851
 20
268.46702453987729
 11
61.522975171042219
 21
266.34570419631763
  0
TEXT
  8
_8-c_Dimension_Machining
 62
    4
 10
56.324345459799389
 20
265.39554994366171
 40
2.5
 41
1
 50
30.000000000000025
  1
φ9.5
  0
LINE
  8
_8-c_Dimension_Machining
  6
CONTINUOUS
 62
    4
 10
63.644295514601851
 20
268.46702453987729
 11
55.417054178649693
 21
263.71702453987729
  0
LINE
  8
_8-c_Dimension_Machining
  6
CONTINUOUS
 62
    4
 10
83.417054178649693
 20
263.71702453987729
 11
86.314831657516891
 21
264.49348167518485
  0
LINE
  8
_8-c_Dimension_Machining
  6
CONTINUOUS
 62
    4
 10
83.417054178649693
 20
263.71702453987729
 11
85.538374522209338
 21
265.83834488343695
  0
LINE
  8
_8-c_Dimension_Machining
  6
CONTINUOUS
 62
    4
 10
91.644295514601851
 20
268.46702453987729
 11
88.746518035734653
 21
267.69056740456972
  0
LINE
  8
_8-c_Dimension_Machining
  6
CONTINUOUS
 62
    4
 10
91.644295514601851
 20
268.46702453987729
 11
89.522975171042205
 21
266.34570419631763
  0
TEXT
  8
_8-c_Dimension_Machining
 62
    4
 10
84.324345459799403
 20
265.39554994366171
 40
2.5
 41
1
 50
30.000000000000025
  1
φ9.5
  0
LINE
  8
_8-c_Dimension_Machining
  6
CONTINUOUS
 62
    4
 10
91.644295514601851
 20
268.46702453987729
 11
83.417054178649693
 21
263.71702453987729
  0
LINE
  8
_8-c_Dimension_Machining
  6
CENTER1
 62
    4
 10
87.530674846625772
 20
275.20359817832815
 11
87.530674846625772
 21
248.85879031954534
  0
LINE
  8
_8-c_Dimension_Machining
  6
CENTER1
 62
    4
 10
115.53067484662577
 20
273.09202453987729
 11
115.53067484662577
 21
259.65432584448865
  0
LINE
  8
_8-c_Dimension_Machining
  6
CENTER1
 62
    4
 10
122.53067484662577
 20
269.97357816503813
 11
122.53067484662577
 21
262.68383111290683
  0
LINE
  8
_8-c_Dimension_Machining
  6
CENTER1
 62
    4
 10
108.53067484662577
 20
269.97357816503813
 11
108.53067484662577
 21
262.68383111290683
  0
LINE
  8
_8-c_Dimension_Machining
  6
CENTER1
 62
    4
 10
52.530674846625772
 20
269.97357816503813
 11
52.530674846625772
 21
262.68383111290683
  0
CIRCLE
  8
_8-4_Machining
  6
CONTINUOUS
 62
    7
 10
115.53067484662577
 20
266.09202453987729
 40
4.75
  0
CIRCLE
  8
_8-4_Machining
  6
CONTINUOUS
 62
    7
 10
87.530674846625772
 20
266.09202453987729
 40
4.75
  0
CIRCLE
  8
_8-4_Machining
  6
CONTINUOUS
 62
    7
 10
59.530674846625772
 20
266.09202453987729
 40
4.75
  0
CIRCLE
  8
_8-4_Machining
  6
CONTINUOUS
 62
    7
 10
52.530674846625772
 20
266.09202453987729
 40
1.3999999999999999
  0
CIRCLE
  8
_8-4_Machining
  6
CONTINUOUS
 62
    7
 10
66.530674846625772
 20
266.09202453987729
 40
1.3999999999999999
  0
LINE
  8
_8-8_Dimension_Outline
  6
CENTER1
 62
    4
 10
52.530674846625772
 20
262.68383111290683
 11
52.530674846625772
 21
269.97357816503813
  0
LINE
  8
_8-8_Dimension_Outline
  6
CENTER1
 62
    4
 10
66.530674846625772
 20
262.68383111290683
 11
66.530674846625772
 21
269.97357816503813
  0
LINE
  8
_8-8_Dimension_Outline
  6
CENTER1
 62
    4
 10
59.530674846625772
 20
259.65432584448865
 11
59.530674846625772
 21
273.38177159200859
  0
LINE
  8
_8-8_Dimension_Outline
  6
CENTER1
 62
    4
 10
108.53067484662577
 20
262.68383111290683
 11
108.53067484662577
 21
269.97357816503813
  0
LINE
  8
_8-8_Dimension_Outline
  6
CENTER1
 62
    4
 10
122.53067484662577
 20
262.68383111290683
 11
122.53067484662577
 21
269.97357816503813
  0
LINE
  8
_8-8_Dimension_Outline
  6
CENTER1
 62
    4
 10
115.53067484662577
 20
259.65432584448865
 11
115.53067484662577
 21
273.38177159200859
  0
CIRCLE
  8
_8-4_Machining
  6
CONTINUOUS
 62
    7
 10
108.53067484662577
 20
266.09202453987729
 40
1.3999999999999999
  0
CIRCLE
  8
_8-4_Machining
  6
CONTINUOUS
 62
    7
 10
122.53067484662577
 20
266.09202453987729
 40
1.3999999999999999
  0
ARC
  8
_8-0_Outline
  6
CONTINUOUS
 62
    7
 10
66.830674846625783
 20
280.84202453987729
 40
0.7500000000000001
 50
90
 51
180
  0
LINE
  8
_8-0_Outline
  6
CONTINUOUS
 62
    7
 10
66.080674846625783
 20
280.84202453987729
 11
66.080674846625783
 21
276.59202453987729
  0
ARC
  8
_8-0_Outline
  6
CONTINUOUS
 62
    7
 10
66.830674846625783
 20
280.84202453987729
 40
0.7500000000000001
 50
0
 51
90
  0
LINE
  8
_8-0_Outline
  6
CONTINUOUS
 62
    7
 10
67.580674846625783
 20
280.84202453987729
 11
67.580674846625783
 21
276.59202453987729
  0
LINE
  8
_8-0_Outline
  6
CONTINUOUS
 62
    7
 10
67.580674846625783
 20
276.59202453987729
 11
66.080674846625783
 21
276.59202453987729
  0
ARC
  8
_8-0_Outline
  6
CONTINUOUS
 62
    7
 10
59.530674846625772
 20
280.84202453987729
 40
0.7500000000000001
 50
90
 51
180
  0
LINE
  8
_8-0_Outline
  6
CONTINUOUS
 62
    7
 10
58.780674846625772
 20
280.84202453987729
 11
58.780674846625772
 21
276.59202453987729
  0
ARC
  8
_8-0_Outline
  6
CONTINUOUS
 62
    7
 10
59.530674846625772
 20
280.84202453987729
 40
0.7500000000000001
 50
0
 51
90
  0
LINE
  8
_8-0_Outline
  6
CONTINUOUS
 62
    7
 10
60.280674846625772
 20
280.84202453987729
 11
60.280674846625772
 21
276.59202453987729
  0
LINE
  8
_8-0_Outline
  6
CONTINUOUS
 62
    7
 10
60.280674846625772
 20
276.59202453987729
 11
58.780674846625772
 21
276.59202453987729
  0
LINE
  8
_8-0_Outline
  6
CONTINUOUS
 62
    7
 10
70.030674846625772
 20
274.59202453987729
 11
70.030674846625772
 21
257.59202453987729
  0
CIRCLE
  8
_8-0_Outline
  6
CONTINUOUS
 62
    7
 10
59.530674846625772
 20
266.09202453987729
 40
3
  0
CIRCLE
  8
_8-0_Outline
  6
CONTINUOUS
 62
    7
 10
59.530674846625772
 20
266.09202453987729
 40
4
  0
ARC
  8
_8-0_Outline
  6
CONTINUOUS
 62
    7
 10
51.030674846625772
 20
257.59202453987729
 40
2
 50
180
 51
270
  0
LINE
  8
_8-0_Outline
  6
CONTINUOUS
 62
    7
 10
51.030674846625772
 20
255.59202453987729
 11
68.030674846625772
 21
255.59202453987729
  0
LINE
  8
_8-0_Outline
  6
CONTINUOUS
 62
    7
 10
49.030674846625772
 20
257.59202453987729
 11
49.030674846625772
 21
274.59202453987729
  0
ARC
  8
_8-0_Outline
  6
CONTINUOUS
 62
    7
 10
51.030674846625772
 20
274.59202453987729
 40
2
 50
90
 51
180
  0
LINE
  8
_8-0_Outline
  6
CONTINUOUS
 62
    7
 10
51.030674846625772
 20
276.59202453987729
 11
68.030674846625772
 21
276.59202453987729
  0
ARC
  8
_8-0_Outline
  6
CONTINUOUS
 62
    7
 10
68.030674846625772
 20
274.59202453987729
 40
2
 50
0
 51
90
  0
ARC
  8
_8-0_Outline
  6
CONTINUOUS
 62
    7
 10
68.030674846625772
 20
257.59202453987729
 40
2
 50
270
 51
0
  0
ARC
  8
_8-0_Outline
  6
CONTINUOUS
 62
    7
 10
122.83067484662578
 20
280.84202453987729
 40
0.7500000000000001
 50
90
 51
180
  0
LINE
  8
_8-0_Outline
  6
CONTINUOUS
 62
    7
 10
122.08067484662578
 20
280.84202453987729
 11
122.08067484662578
 21
276.59202453987729
  0
ARC
  8
_8-0_Outline
  6
CONTINUOUS
 62
    7
 10
122.83067484662578
 20
280.84202453987729
 40
0.7500000000000001
 50
0
 51
90
  0
LINE
  8
_8-0_Outline
  6
CONTINUOUS
 62
    7
 10
123.58067484662578
 20
280.84202453987729
 11
123.58067484662578
 21
276.59202453987729
  0
LINE
  8
_8-0_Outline
  6
CONTINUOUS
 62
    7
 10
123.58067484662578
 20
276.59202453987729
 11
122.08067484662578
 21
276.59202453987729
  0
ARC
  8
_8-0_Outline
  6
CONTINUOUS
 62
    7
 10
115.53067484662577
 20
280.84202453987729
 40
0.7500000000000001
 50
90
 51
180
  0
LINE
  8
_8-0_Outline
  6
CONTINUOUS
 62
    7
 10
114.78067484662577
 20
280.84202453987729
 11
114.78067484662577
 21
276.59202453987729
  0
ARC
  8
_8-0_Outline
  6
CONTINUOUS
 62
    7
 10
115.53067484662577
 20
280.84202453987729
 40
0.7500000000000001
 50
0
 51
90
  0
LINE
  8
_8-0_Outline
  6
CONTINUOUS
 62
    7
 10
116.28067484662577
 20
280.84202453987729
 11
116.28067484662577
 21
276.59202453987729
  0
LINE
  8
_8-0_Outline
  6
CONTINUOUS
 62
    7
 10
116.28067484662577
 20
276.59202453987729
 11
114.78067484662577
 21
276.59202453987729
  0
LINE
  8
_8-0_Outline
  6
CONTINUOUS
 62
    7
 10
126.03067484662577
 20
274.59202453987729
 11
126.03067484662577
 21
257.59202453987729
  0
CIRCLE
  8
_8-0_Outline
  6
CONTINUOUS
 62
    7
 10
115.53067484662577
 20
266.09202453987729
 40
3
  0
CIRCLE
  8
_8-0_Outline
  6
CONTINUOUS
 62
    7
 10
115.53067484662577
 20
266.09202453987729
 40
4
  0
ARC
  8
_8-0_Outline
  6
CONTINUOUS
 62
    7
 10
107.03067484662577
 20
257.59202453987729
 40
2
 50
180
 51
270
  0
LINE
  8
_8-0_Outline
  6
CONTINUOUS
 62
    7
 10
107.03067484662577
 20
255.59202453987729
 11
124.03067484662577
 21
255.59202453987729
  0
LINE
  8
_8-0_Outline
  6
CONTINUOUS
 62
    7
 10
105.03067484662577
 20
257.59202453987729
 11
105.03067484662577
 21
274.59202453987729
  0
ARC
  8
_8-0_Outline
  6
CONTINUOUS
 62
    7
 10
107.03067484662577
 20
274.59202453987729
 40
2
 50
90
 51
180
  0
LINE
  8
_8-0_Outline
  6
CONTINUOUS
 62
    7
 10
107.03067484662577
 20
276.59202453987729
 11
124.03067484662577
 21
276.59202453987729
  0
ARC
  8
_8-0_Outline
  6
CONTINUOUS
 62
    7
 10
124.03067484662577
 20
274.59202453987729
 40
2
 50
0
 51
90
  0
ARC
  8
_8-0_Outline
  6
CONTINUOUS
 62
    7
 10
124.03067484662577
 20
257.59202453987729
 40
2
 50
270
 51
0
  0
LINE
  8
_8-8_Dimension_Outline
  6
CENTER1
 62
    4
 10
66.790714742745308
 20
266.09202453987729
 11
154.95509321702886
 21
266.09202453987729
  0
LINE
  8
_8-8_Dimension_Outline
  6
CENTER1
 62
    4
 10
133.78269768529842
 20
266.09202453987729
 11
103.77166112003063
 21
266.09202453987729
  0
LINE
  8
_8-8_Dimension_Outline
  6
CENTER1
 62
    4
 10
85.428088635998151
 20
253.59202453987729
 11
89.787031293998368
 21
253.59202453987729
  0
LINE
  8
_8-0_Outline
  6
CONTINUOUS
 62
    7
 10
87.880674846625766
 20
263.11251115678937
 11
87.880674846625766
 21
269.07153792296521
  0
LINE
  8
_8-0_Outline
  6
CONTINUOUS
 62
    7
 10
87.180674846625777
 20
263.11251115678937
 11
87.180674846625777
 21
269.07153792296521
  0
LINE
  8
_8-0_Outline
  6
CONTINUOUS
 62
    7
 10
100.93067484662578
 20
269.52521218376376
 11
100.93067484662578
 21
262.51014157126571
  0
LINE
  8
_8-0_Outline
  6
CONTINUOUS
 62
    7
 10
74.130674846625766
 20
269.52521218376376
 11
74.130674846625766
 21
262.51014157126571
  0
LINE
  8
_8-0_Outline
  6
CONTINUOUS
 62
    7
 10
98.439386961261476
 20
271.09202453987729
 11
100.03396535319015
 21
271.09202453987729
  0
LINE
  8
_8-0_Outline
  6
CONTINUOUS
 62
    7
 10
98.439386961261476
 20
261.09202453987729
 11
100.03396535319015
 21
261.09202453987729
  0
LINE
  8
_8-0_Outline
  6
CONTINUOUS
 62
    7
 10
76.621962731990038
 20
261.09202453987729
 11
75.027384340061417
 21
261.09202453987729
  0
LINE
  8
_8-0_Outline
  6
CONTINUOUS
 62
    7
 10
76.621962731990038
 20
271.09202453987729
 11
75.027384340061388
 21
271.09202453987729
  0
ARC
  8
_8-0_Outline
  6
CONTINUOUS
 62
    7
 10
87.530674846625772
 20
266.09202453987729
 40
12
 50
204.62431835216407
 51
335.3756816478359
  0
ARC
  8
_8-0_Outline
  6
CONTINUOUS
 62
    7
 10
87.530674846625772
 20
266.09202453987729
 40
12
 50
24.62431835216411
 51
155.37568164783593
  0
LINE
  8
_8-0_Outline
  6
CONTINUOUS
 62
    7
 10
100.03396535319015
 20
261.09202453987729
 11
95.989008156354274
 21
257.2309242909501
  0
LINE
  8
_8-0_Outline
  6
CONTINUOUS
 62
    7
 10
101.4830557893721
 20
262.4752489280703
 11
100.93067484662578
 21
261.94797556230787
  0
LINE
  8
_8-0_Outline
  6
CONTINUOUS
 62
    7
 10
100.93067484662578
 20
261.94797556230787
 11
100.93067484662578
 21
261.09202453987729
  0
LINE
  8
_8-0_Outline
  6
CONTINUOUS
 62
    7
 10
100.93067484662578
 20
270.2360735174467
 11
100.93067484662578
 21
261.94797556230787
  0
LINE
  8
_8-0_Outline
  6
CONTINUOUS
 62
    7
 10
100.03396535319015
 20
261.09202453987729
 11
100.93067484662578
 21
261.09202453987729
  0
LINE
  8
_8-0_Outline
  6
CONTINUOUS
 62
    7
 10
74.130674846625766
 20
261.94797556230787
 11
73.578293894248702
 21
262.4752489372633
  0
LINE
  8
_8-0_Outline
  6
CONTINUOUS
 62
    7
 10
79.072341513301922
 20
257.230924313473
 11
75.027384340061417
 21
261.09202453987729
  0
LINE
  8
_8-0_Outline
  6
CONTINUOUS
 62
    7
 10
74.130674846625766
 20
261.94797556230787
 11
74.130674846625766
 21
261.09202453987729
  0
LINE
  8
_8-0_Outline
  6
CONTINUOUS
 62
    7
 10
74.130674846625766
 20
270.2360735174467
 11
74.130674846625766
 21
261.94797556230787
  0
LINE
  8
_8-0_Outline
  6
CONTINUOUS
 62
    7
 10
75.027384340061417
 20
261.09202453987729
 11
74.130674846625766
 21
261.09202453987729
  0
LINE
  8
_8-0_Outline
  6
CONTINUOUS
 62
    7
 10
74.130674846625766
 20
270.2360735174467
 11
73.578293894246599
 21
269.70880014248928
  0
LINE
  8
_8-0_Outline
  6
CONTINUOUS
 62
    7
 10
79.072341513296749
 20
274.95312476627669
 11
75.027384340061388
 21
271.09202453987729
  0
LINE
  8
_8-0_Outline
  6
CONTINUOUS
 62
    7
 10
74.130674846625766
 20
270.2360735174467
 11
74.130674846625766
 21
271.09202453987729
  0
LINE
  8
_8-0_Outline
  6
CONTINUOUS
 62
    7
 10
75.027384340061388
 20
271.09202453987729
 11
74.130674846625766
 21
271.09202453987729
  0
LINE
  8
_8-0_Outline
  6
CONTINUOUS
 62
    7
 10
100.93067484662578
 20
270.2360735174467
 11
101.48305577485392
 21
269.70880016554258
  0
LINE
  8
_8-0_Outline
  6
CONTINUOUS
 62
    7
 10
95.989008120784732
 20
274.95312482275722
 11
100.03396535319015
 21
271.09202453987729
  0
LINE
  8
_8-0_Outline
  6
CONTINUOUS
 62
    7
 10
100.93067484662578
 20
270.2360735174467
 11
100.93067484662578
 21
271.09202453987729
  0
LINE
  8
_8-0_Outline
  6
CONTINUOUS
 62
    7
 10
100.03396535319015
 20
271.09202453987729
 11
100.93067484662578
 21
271.09202453987729
  0
CIRCLE
  8
_8-4_Machining
  6
CONTINUOUS
 62
    7
 10
87.530674846625772
 20
253.59202453987729
 40
1.7500000000000002
  0
LINE
  8
_8-0_Outline
  6
CONTINUOUS
 62
    7
 10
86.030674846625772
 20
253.99202453987729
 11
86.030674846625772
 21
253.19202453987728
  0
LINE
  8
_8-0_Outline
  6
CONTINUOUS
 62
    7
 10
89.030674846625772
 20
253.99202453987729
 11
86.030674846625772
 21
253.99202453987729
  0
LINE
  8
_8-0_Outline
  6
CONTINUOUS
 62
    7
 10
89.030674846625772
 20
253.19202453987728
 11
89.030674846625772
 21
253.99202453987729
  0
LINE
  8
_8-0_Outline
  6
CONTINUOUS
 62
    7
 10
86.030674846625772
 20
253.19202453987728
 11
89.030674846625772
 21
253.19202453987728
  0
ARC
  8
_8-0_Outline
  6
CONTINUOUS
 62
    7
 10
87.530674846625772
 20
266.09202453987729
 40
12.25
 50
226.33218470170542
 51
313.66781529829461
  0
ARC
  8
_8-0_Outline
  6
CONTINUOUS
 62
    7
 10
87.530674846625772
 20
266.09202453987729
 40
12.25
 50
46.332185084326333
 51
133.66781529826659
  0
ARC
  8
_8-0_Outline
  6
CONTINUOUS
 62
    7
 10
77.030674846625772
 20
266.09202453987729
 40
5
 50
133.66781529826659
 51
226.33218470170547
  0
ARC
  8
_8-0_Outline
  6
CONTINUOUS
 62
    7
 10
98.030674846625772
 20
266.09202453987729
 40
5
 50
313.6678152982945
 51
46.332185084326241
  0
CIRCLE
  8
_8-0_Outline
  6
CONTINUOUS
 62
    7
 10
87.530674846625772
 20
266.09202453987729
 40
3
  0
CIRCLE
  8
_8-0_Outline
  6
CONTINUOUS
 62
    7
 10
87.530674846625772
 20
266.09202453987729
 40
4.5
  0
LINE
  8
_8-8_Dimension_Outline
  6
CENTER1
 62
    4
 10
87.530674846625772
 20
279.98400391433626
 11
87.530674846625772
 21
249.91106176370957
  0
LINE
  8
_8-8_Dimension_Outline
  6
CENTER1
 62
    4
 10
70.782697685298416
 20
266.09202453987729
 11
16.594774259895047
 21
266.09202453987729
  0
LINE
  8
_8-c_Dimension_Machining
  6
CONTINUOUS
 62
    4
 10
29.417054178649693
 20
259.21702453987729
 11
32.314831657516891
 21
259.99348167518485
  0
LINE
  8
_8-c_Dimension_Machining
  6
CONTINUOUS
 62
    4
 10
29.417054178649693
 20
259.21702453987729
 11
31.538374522209324
 21
261.33834488343695
  0
LINE
  8
_8-c_Dimension_Machining
  6
CONTINUOUS
 62
    4
 10
37.644295514601851
 20
263.96702453987729
 11
34.746518035734653
 21
263.19056740456972
  0
LINE
  8
_8-c_Dimension_Machining
  6
CONTINUOUS
 62
    4
 10
37.644295514601851
 20
263.96702453987729
 11
35.522975171042219
 21
261.84570419631763
  0
LINE
  8
_8-c_Dimension_Machining
  6
CONTINUOUS
 62
    4
 10
37.644295514601851
 20
263.96702453987729
 11
29.417054178649693
 21
259.21702453987729
  0
TEXT
  8
_8-c_Dimension_Machining
 62
    4
 10
30.324345459799389
 20
260.89554994366171
 40
2.5
 41
1
 50
30.000000000000025
  1
φ9.5
  0
LINE
  8
_8-c_Dimension_Machining
  6
CENTER1
 62
    4
 10
33.530674846625772
 20
270.85475444237005
 11
33.530674846625772
 21
253.66369276833737
  0
LINE
  8
_8-c_Dimension_Machining
  6
CENTER1
 62
    4
 10
41.163165264617248
 20
261.59202453987729
 11
25.41625202303436
 21
261.59202453987729
  0
CIRCLE
  8
_8-4_Machining
  6
CONTINUOUS
 62
    7
 10
33.530674846625772
 20
261.59202453987729
 40
4.75
  0
LINE
  8
_8-c_Dimension_Machining
  6
CENTER1
 62
    4
 10
174.59608277278724
 20
266.09202453987729
 11
23.764643005005837
 21
266.09202453987729
  0
LINE
  8
_8-c_Dimension_Machining
  6
CONTINUOUS
 62
    4
 10
170.56015108709886
 20
249.59202453987729
 11
170.56015108709886
 21
266.09202453987729
  0
LINE
  8
_8-c_Dimension_Machining
  6
CONTINUOUS
 62
    4
 10
170.56015108709886
 20
249.59202453987729
 11
169.78369395179129
 21
252.48980201874451
  0
LINE
  8
_8-c_Dimension_Machining
  6
CONTINUOUS
 62
    4
 10
170.56015108709886
 20
249.59202453987729
 11
171.3366082224064
 21
252.48980201874451
  0
LINE
  8
_8-c_Dimension_Machining
  6
CONTINUOUS
 62
    4
 10
170.56015108709886
 20
266.09202453987729
 11
171.3366082224064
 21
263.19424706101006
  0
LINE
  8
_8-c_Dimension_Machining
  6
CONTINUOUS
 62
    4
 10
170.56015108709886
 20
266.09202453987729
 11
169.78369395179129
 21
263.19424706101006
  0
TEXT
  8
_8-c_Dimension_Machining
 62
    4
 10
169.56015108709886
 20
255.34202453987729
 40
2.5
 41
1
 50
90
  1
16.5
  0
LINE
  8
_8-c_Dimension_Machining
  6
CONTINUOUS
 62
    4
 10
170.56015108709886
 20
266.09202453987729
 11
170.56015108709886
 21
281.59202453987729
  0
LINE
  8
_8-c_Dimension_Machining
  6
CONTINUOUS
 62
    4
 10
170.56015108709886
 20
266.09202453987729
 11
169.78369395179129
 21
268.98980201874451
  0
LINE
  8
_8-c_Dimension_Machining
  6
CONTINUOUS
 62
    4
 10
170.56015108709886
 20
266.09202453987729
 11
171.3366082224064
 21
268.98980201874451
  0
LINE
  8
_8-c_Dimension_Machining
  6
CONTINUOUS
 62
    4
 10
170.56015108709886
 20
281.59202453987729
 11
171.3366082224064
 21
278.69424706101006
  0
LINE
  8
_8-c_Dimension_Machining
  6
CONTINUOUS
 62
    4
 10
170.56015108709886
 20
281.59202453987729
 11
169.78369395179129
 21
278.69424706101006
  0
TEXT
  8
_8-c_Dimension_Machining
 62
    4
 10
169.56015108709886
 20
271.34202453987729
 40
2.5
 41
1
 50
90
  1
15.5
  0
LINE
  8
_0-4_
  6
CONTINUOUS
 62
    7
 10
25.944888408998878
 20
270.59202453987729
 11
24.530674846625772
 21
269.17781097750418
  0
LINE
  8
_0-4_
  6
CONTINUOUS
 62
    7
 10
24.530674846625772
 20
254.00623810225039
 11
24.530674846625772
 21
269.17781097750418
  0
LINE
  8
_0-4_
  6
CONTINUOUS
 62
    7
 10
24.530674846625772
 20
254.00623810225039
 11
25.944888408998878
 21
252.59202453987729
  0
LINE
  8
_0-4_
  6
CONTINUOUS
 62
    7
 10
41.116461284252665
 20
252.59202453987729
 11
25.944888408998878
 21
252.59202453987729
  0
LINE
  8
_0-4_
  6
CONTINUOUS
 62
    7
 10
41.116461284252665
 20
252.59202453987729
 11
42.530674846625772
 21
254.00623810225039
  0
LINE
  8
_0-4_
  6
CONTINUOUS
 62
    7
 10
42.530674846625772
 20
269.17781097750418
 11
42.530674846625772
 21
254.00623810225039
  0
LINE
  8
_0-4_
  6
CONTINUOUS
 62
    7
 10
41.116461284252665
 20
270.59202453987729
 11
25.944888408998878
 21
270.59202453987729
  0
LINE
  8
_0-4_
  6
CONTINUOUS
 62
    7
 10
42.530674846625772
 20
269.17781097750418
 11
41.116461284252665
 21
270.59202453987729
  0
LINE
  8
_8-8_Dimension_Outline
  6
CENTER1
 62
    4
 10
27.180674846625777
 20
269.63376784935832
 11
27.180674846625777
 21
267.07940904402932
  0
LINE
  8
_8-8_Dimension_Outline
  6
CENTER1
 62
    4
 10
39.880674846625766
 20
269.63376784935832
 11
39.880674846625766
 21
267.07940904402932
  0
LINE
  8
_8-8_Dimension_Outline
  6
CENTER1
 62
    4
 10
27.180674846625777
 20
256.27250640609884
 11
27.180674846625777
 21
253.71814760076978
  0
LINE
  8
_8-8_Dimension_Outline
  6
CENTER1
 62
    4
 10
39.880674846625766
 20
256.27250640609884
 11
39.880674846625766
 21
253.71814760076978
  0
LINE
  8
_8-8_Dimension_Outline
  6
CENTER1
 62
    4
 10
25.474370288460506
 20
267.94202453987725
 11
29.207663927018302
 21
267.94202453987725
  0
LINE
  8
_8-8_Dimension_Outline
  6
CENTER1
 62
    4
 10
25.474370288460506
 20
255.24202453987729
 11
29.207663927018302
 21
255.24202453987729
  0
LINE
  8
_8-8_Dimension_Outline
  6
CENTER1
 62
    4
 10
38.540898023412808
 20
267.94202453987725
 11
41.48823510648478
 21
267.94202453987725
  0
LINE
  8
_8-8_Dimension_Outline
  6
CENTER1
 62
    4
 10
38.540898023412808
 20
255.24202453987729
 11
41.48823510648478
 21
255.24202453987729
  0
CIRCLE
  8
_0-4_
  6
CONTINUOUS
 62
    7
 10
27.180674846625777
 20
267.94202453987725
 40
1.6000000000000001
  0
CIRCLE
  8
_0-4_
  6
CONTINUOUS
 62
    7
 10
39.880674846625766
 20
267.94202453987725
 40
1.6000000000000001
  0
CIRCLE
  8
_0-4_
  6
CONTINUOUS
 62
    7
 10
39.880674846625766
 20
255.24202453987729
 40
1.6000000000000001
  0
CIRCLE
  8
_0-4_
  6
CONTINUOUS
 62
    7
 10
27.180674846625777
 20
255.24202453987729
 40
1.6000000000000001
  0
CIRCLE
  8
_8-4_Machining
  6
CONTINUOUS
 62
    7
 10
147.88067484662577
 20
267.94202453987725
 40
1.6000000000000001
  0
CIRCLE
  8
_8-4_Machining
  6
CONTINUOUS
 62
    7
 10
147.88067484662577
 20
255.24202453987729
 40
1.6000000000000001
  0
CIRCLE
  8
_8-4_Machining
  6
CONTINUOUS
 62
    7
 10
135.18067484662578
 20
255.24202453987729
 40
1.6000000000000001
  0
CIRCLE
  8
_8-4_Machining
  6
CONTINUOUS
 62
    7
 10
135.18067484662578
 20
267.94202453987725
 40
1.6000000000000001
  0
CIRCLE
  8
_8-4_Machining
  6
CONTINUOUS
 62
    7
 10
39.880674846625766
 20
267.94202453987725
 40
1.6000000000000001
  0
CIRCLE
  8
_8-4_Machining
  6
CONTINUOUS
 62
    7
 10
39.880674846625766
 20
255.24202453987729
 40
1.6000000000000001
  0
CIRCLE
  8
_8-4_Machining
  6
CONTINUOUS
 62
    7
 10
27.180674846625777
 20
255.24202453987729
 40
1.6000000000000001
  0
CIRCLE
  8
_8-4_Machining
  6
CONTINUOUS
 62
    7
 10
27.180674846625777
 20
267.94202453987725
 40
1.6000000000000001
  0
LINE
  8
_8-c_Dimension_Machining
  6
CONTINUOUS
 62
    4
 10
146.49503420057067
 20
254.44202453987731
 11
149.26631549268086
 21
256.04202453987727
  0
LINE
  8
_8-c_Dimension_Machining
  6
CONTINUOUS
 62
    4
 10
149.26631549268086
 20
256.04202453987727
 11
158.35958223241749
 21
261.29202453987727
  0
LINE
  8
_8-c_Dimension_Machining
  6
CONTINUOUS
 62
    4
 10
142.16490718164846
 20
251.94202453987731
 11
146.49503420057067
 21
254.44202453987731
  0
LINE
  8
_8-c_Dimension_Machining
  6
CONTINUOUS
 62
    4
 10
146.49503420057067
 20
254.44202453987731
 11
144.37371385701101
 21
252.32070419631765
  0
LINE
  8
_8-c_Dimension_Machining
  6
CONTINUOUS
 62
    4
 10
146.49503420057067
 20
254.44202453987731
 11
143.59725672170345
 21
253.66556740456974
  0
LINE
  8
_8-c_Dimension_Machining
  6
CONTINUOUS
 62
    4
 10
149.26631549268086
 20
256.04202453987727
 11
151.38763583624052
 21
258.16334488343693
  0
LINE
  8
_8-c_Dimension_Machining
  6
CONTINUOUS
 62
    4
 10
149.26631549268086
 20
256.04202453987727
 11
152.16409297154809
 21
256.81848167518484
  0
TEXT
  8
_8-c_Dimension_Machining
 62
    4
 10
151.36439170403418
 20
258.40804994366169
 40
2.5
 41
1
 50
29.999999999999982
  1
4-φ3.2
  0
LINE
  8
_8-c_Dimension_Machining
  6
CONTINUOUS
 62
    4
 10
19.524332869133218
 20
261.59202453987729
 11
19.524332869133218
 21
256.59202453987729
  0
LINE
  8
_8-c_Dimension_Machining
  6
CONTINUOUS
 62
    4
 10
19.524332869133218
 20
266.09202453987729
 11
19.524332869133218
 21
271.09202453987729
  0
LINE
  8
_8-c_Dimension_Machining
  6
CONTINUOUS
 62
    4
 10
19.524332869133218
 20
261.59202453987729
 11
19.524332869133218
 21
266.09202453987729
  0
LINE
  8
_8-c_Dimension_Machining
  6
CONTINUOUS
 62
    4
 10
19.524332869133218
 20
261.59202453987729
 11
20.300790004440785
 21
258.69424706101006
  0
LINE
  8
_8-c_Dimension_Machining
  6
CONTINUOUS
 62
    4
 10
19.524332869133218
 20
261.59202453987729
 11
18.747875733825651
 21
258.69424706101006
  0
LINE
  8
_8-c_Dimension_Machining
  6
CONTINUOUS
 62
    4
 10
19.524332869133218
 20
266.09202453987729
 11
18.747875733825651
 21
268.98980201874451
  0
LINE
  8
_8-c_Dimension_Machining
  6
CONTINUOUS
 62
    4
 10
19.524332869133218
 20
266.09202453987729
 11
20.300790004440785
 21
268.98980201874451
  0
LINE
  8
_8-c_Dimension_Machining
  6
CONTINUOUS
 62
    4
 10
19.024332869133218
 20
261.59202453987729
 11
22.41625202303436
 21
261.59202453987729
  0
LINE
  8
_8-c_Dimension_Machining
  6
CONTINUOUS
 62
    4
 10
19.024332869133218
 20
266.09202453987729
 11
21.530674846625772
 21
266.09202453987729
  0
TEXT
  8
_8-c_Dimension_Machining
 62
    4
 10
18.524332869133218
 20
261.96702453987729
 40
2.5
 41
1
 50
90
  1
4.5
  0
LINE
  8
_8-c_Dimension_Machining
  6
CENTER1
 62
    4
 10
39.880674846625766
 20
269.98556340630489
 11
39.880674846625766
 21
266.13775155797538
  0
LINE
  8
_8-c_Dimension_Machining
  6
CENTER1
 62
    4
 10
27.180674846625777
 20
269.98556340630489
 11
27.180674846625777
 21
266.13775155797538
  0
LINE
  8
_8-c_Dimension_Machining
  6
CENTER1
 62
    4
 10
39.880674846625766
 20
257.93583682864141
 11
39.880674846625766
 21
253.2273302247645
  0
LINE
  8
_8-c_Dimension_Machining
  6
CENTER1
 62
    4
 10
27.180674846625777
 20
257.93583682864141
 11
27.180674846625777
 21
253.2273302247645
  0
LINE
  8
_8-c_Dimension_Machining
  6
CENTER1
 62
    4
 10
24.868388140542208
 20
267.94202453987725
 11
29.627523847686604
 21
267.94202453987725
  0
LINE
  8
_8-c_Dimension_Machining
  6
CENTER1
 62
    4
 10
24.868388140542208
 20
255.24202453987729
 11
29.627523847686604
 21
255.24202453987729
  0
LINE
  8
_8-c_Dimension_Machining
  6
CENTER1
 62
    4
 10
37.525663957415617
 20
267.94202453987725
 11
42.031654148222543
 21
267.94202453987725
  0
LINE
  8
_8-c_Dimension_Machining
  6
CENTER1
 62
    4
 10
37.525663957415617
 20
255.24202453987729
 11
42.031654148222543
 21
255.24202453987729
  0
LINE
  8
_8-c_Dimension_Machining
  6
CONTINUOUS
 62
    4
 10
38.495034200570672
 20
254.44202453987731
 11
41.26631549268086
 21
256.04202453987727
  0
LINE
  8
_8-c_Dimension_Machining
  6
CONTINUOUS
 62
    4
 10
41.26631549268086
 20
256.04202453987727
 11
50.359582232417466
 21
261.29202453987727
  0
LINE
  8
_8-c_Dimension_Machining
  6
CONTINUOUS
 62
    4
 10
34.164907181648488
 20
251.94202453987731
 11
38.495034200570672
 21
254.44202453987731
  0
LINE
  8
_8-c_Dimension_Machining
  6
CONTINUOUS
 62
    4
 10
38.495034200570672
 20
254.44202453987731
 11
36.37371385701104
 21
252.32070419631765
  0
LINE
  8
_8-c_Dimension_Machining
  6
CONTINUOUS
 62
    4
 10
38.495034200570672
 20
254.44202453987731
 11
35.597256721703474
 21
253.66556740456974
  0
LINE
  8
_8-c_Dimension_Machining
  6
CONTINUOUS
 62
    4
 10
41.26631549268086
 20
256.04202453987727
 11
43.387635836240491
 21
258.16334488343693
  0
LINE
  8
_8-c_Dimension_Machining
  6
CONTINUOUS
 62
    4
 10
41.26631549268086
 20
256.04202453987727
 11
44.164092971548058
 21
256.81848167518484
  0
TEXT
  8
_8-c_Dimension_Machining
 62
    4
 10
43.364391704034176
 20
258.40804994366169
 40
2.5
 41
1
 50
30.000000000000068
  1
4-φ3.2
  0
TEXT
  8
_8-c_Dimension_Machining
 62
    4
 10
118.40567484662577
 20
276.79549098573523
 40
2.5
 41
1
 50
0
  1
7
  0
LINE
  8
_8-c_Dimension_Machining
  6
CONTINUOUS
 62
    4
 10
122.53067484662577
 20
276.29549098573523
 11
122.53067484662577
 21
266.97357816503813
  0
LINE
  8
_8-c_Dimension_Machining
  6
CONTINUOUS
 62
    4
 10
122.53067484662577
 20
275.79549098573523
 11
125.42845232549297
 21
275.01903385042772
  0
LINE
  8
_8-c_Dimension_Machining
  6
CONTINUOUS
 62
    4
 10
122.53067484662577
 20
275.79549098573523
 11
125.42845232549297
 21
276.57194812104285
  0
LINE
  8
_8-c_Dimension_Machining
  6
CONTINUOUS
 62
    4
 10
115.53067484662577
 20
275.79549098573523
 11
112.63289736775857
 21
276.57194812104285
  0
LINE
  8
_8-c_Dimension_Machining
  6
CONTINUOUS
 62
    4
 10
115.53067484662577
 20
275.79549098573523
 11
112.63289736775857
 21
275.01903385042772
  0
LINE
  8
_8-c_Dimension_Machining
  6
CONTINUOUS
 62
    4
 10
115.53067484662577
 20
275.79549098573523
 11
122.53067484662577
 21
275.79549098573523
  0
LINE
  8
_8-c_Dimension_Machining
  6
CONTINUOUS
 62
    4
 10
122.53067484662577
 20
275.79549098573523
 11
127.53067484662577
 21
275.79549098573523
  0
LINE
  8
_8-c_Dimension_Machining
  6
CONTINUOUS
 62
    4
 10
115.53067484662577
 20
275.79549098573523
 11
110.53067484662577
 21
275.79549098573523
  0
TEXT
  8
_8-c_Dimension_Machining
 62
    4
 10
111.40567484662577
 20
276.79549098573523
 40
2.5
 41
1
 50
0
  1
7
  0
LINE
  8
_8-c_Dimension_Machining
  6
CONTINUOUS
 62
    4
 10
115.53067484662577
 20
276.29549098573523
 11
115.53067484662577
 21
270.09202453987729
  0
LINE
  8
_8-c_Dimension_Machining
  6
CONTINUOUS
 62
    4
 10
108.53067484662577
 20
276.29549098573523
 11
108.53067484662577
 21
266.97357816503813
  0
LINE
  8
_8-c_Dimension_Machining
  6
CONTINUOUS
 62
    4
 10
115.53067484662577
 20
275.79549098573523
 11
118.42845232549297
 21
275.01903385042772
  0
LINE
  8
_8-c_Dimension_Machining
  6
CONTINUOUS
 62
    4
 10
115.53067484662577
 20
275.79549098573523
 11
118.42845232549297
 21
276.57194812104285
  0
LINE
  8
_8-c_Dimension_Machining
  6
CONTINUOUS
 62
    4
 10
108.53067484662577
 20
275.79549098573523
 11
105.63289736775857
 21
276.57194812104285
  0
LINE
  8
_8-c_Dimension_Machining
  6
CONTINUOUS
 62
    4
 10
108.53067484662577
 20
275.79549098573523
 11
105.63289736775857
 21
275.01903385042772
  0
LINE
  8
_8-c_Dimension_Machining
  6
CONTINUOUS
 62
    4
 10
108.53067484662577
 20
275.79549098573523
 11
115.53067484662577
 21
275.79549098573523
  0
LINE
  8
_8-c_Dimension_Machining
  6
CONTINUOUS
 62
    4
 10
115.53067484662577
 20
275.79549098573523
 11
120.53067484662577
 21
275.79549098573523
  0
LINE
  8
_8-c_Dimension_Machining
  6
CONTINUOUS
 62
    4
 10
108.53067484662577
 20
275.79549098573523
 11
103.53067484662577
 21
275.79549098573523
  0
TEXT
  8
_8-c_Dimension_Machining
 62
    4
 10
62.405674846625772
 20
276.79549098573523
 40
2.5
 41
1
 50
0
  1
7
  0
LINE
  8
_8-c_Dimension_Machining
  6
CONTINUOUS
 62
    4
 10
66.530674846625772
 20
276.29549098573523
 11
66.530674846625772
 21
266.97357816503813
  0
LINE
  8
_8-c_Dimension_Machining
  6
CONTINUOUS
 62
    4
 10
66.530674846625772
 20
275.79549098573523
 11
69.42845232549297
 21
275.01903385042772
  0
LINE
  8
_8-c_Dimension_Machining
  6
CONTINUOUS
 62
    4
 10
66.530674846625772
 20
275.79549098573523
 11
69.42845232549297
 21
276.57194812104285
  0
LINE
  8
_8-c_Dimension_Machining
  6
CONTINUOUS
 62
    4
 10
59.530674846625772
 20
275.79549098573523
 11
56.632897367758574
 21
276.57194812104285
  0
LINE
  8
_8-c_Dimension_Machining
  6
CONTINUOUS
 62
    4
 10
59.530674846625772
 20
275.79549098573523
 11
56.632897367758574
 21
275.01903385042772
  0
LINE
  8
_8-c_Dimension_Machining
  6
CONTINUOUS
 62
    4
 10
59.530674846625772
 20
275.79549098573523
 11
66.530674846625772
 21
275.79549098573523
  0
LINE
  8
_8-c_Dimension_Machining
  6
CONTINUOUS
 62
    4
 10
66.530674846625772
 20
275.79549098573523
 11
71.530674846625772
 21
275.79549098573523
  0
LINE
  8
_8-c_Dimension_Machining
  6
CONTINUOUS
 62
    4
 10
59.530674846625772
 20
275.79549098573523
 11
54.530674846625772
 21
275.79549098573523
  0
TEXT
  8
_8-c_Dimension_Machining
 62
    4
 10
55.405674846625772
 20
276.79549098573523
 40
2.5
 41
1
 50
0
  1
7
  0
LINE
  8
_8-c_Dimension_Machining
  6
CONTINUOUS
 62
    4
 10
59.530674846625772
 20
276.29549098573523
 11
59.530674846625772
 21
270.09202453987729
  0
LINE
  8
_8-c_Dimension_Machining
  6
CONTINUOUS
 62
    4
 10
52.530674846625772
 20
276.29549098573523
 11
52.530674846625772
 21
266.97357816503813
  0
LINE
  8
_8-c_Dimension_Machining
  6
CONTINUOUS
 62
    4
 10
59.530674846625772
 20
275.79549098573523
 11
62.42845232549297
 21
275.01903385042772
  0
LINE
  8
_8-c_Dimension_Machining
  6
CONTINUOUS
 62
    4
 10
59.530674846625772
 20
275.79549098573523
 11
62.42845232549297
 21
276.57194812104285
  0
LINE
  8
_8-c_Dimension_Machining
  6
CONTINUOUS
 62
    4
 10
52.530674846625772
 20
275.79549098573523
 11
49.632897367758574
 21
276.57194812104285
  0
LINE
  8
_8-c_Dimension_Machining
  6
CONTINUOUS
 62
    4
 10
52.530674846625772
 20
275.79549098573523
 11
49.632897367758574
 21
275.01903385042772
  0
LINE
  8
_8-c_Dimension_Machining
  6
CONTINUOUS
 62
    4
 10
52.530674846625772
 20
275.79549098573523
 11
59.530674846625772
 21
275.79549098573523
  0
LINE
  8
_8-c_Dimension_Machining
  6
CONTINUOUS
 62
    4
 10
59.530674846625772
 20
275.79549098573523
 11
64.530674846625772
 21
275.79549098573523
  0
LINE
  8
_8-c_Dimension_Machining
  6
CONTINUOUS
 62
    4
 10
52.530674846625772
 20
275.79549098573523
 11
47.530674846625772
 21
275.79549098573523
  0
LINE
  8
_8-c_Dimension_Machining
  6
CONTINUOUS
 62
    4
 10
162.53067484662577
 20
281.59202453987729
 11
173.98010150282829
 21
281.59202453987729
  0
LINE
  8
_8-c_Dimension_Machining
  6
CONTINUOUS
 62
    4
 10
163.73067484662576
 20
249.59202453987729
 11
173.98010150282829
 21
249.59202453987729
  0
LINE
  8
_0-0_
  6
CONTINUOUS
 62
    7
 10
56.319366701959495
 20
269.59202453987729
 11
11.330674846625783
 21
269.59202453987729
  0
LINE
  8
_0-0_
  6
CONTINUOUS
 62
    7
 10
84.31936670195951
 20
269.59202453987729
 11
62.741982991292048
 21
269.59202453987729
  0
LINE
  8
_0-0_
  6
CONTINUOUS
 62
    7
 10
163.73067484662576
 20
269.59202453987729
 11
118.74198299129205
 21
269.59202453987729
  0
LINE
  8
_0-0_
  6
CONTINUOUS
 62
    7
 10
112.3193667019595
 20
269.59202453987729
 11
90.741982991292033
 21
269.59202453987729
  0
LINE
  8
_8-c_Dimension_Machining
  6
CONTINUOUS
 62
    4
 10
135.18067484662578
 20
246.33903038741281
 11
147.88067484662577
 21
246.33903038741281
  0
LINE
  8
_8-c_Dimension_Machining
  6
CONTINUOUS
 62
    4
 10
135.18067484662578
 20
246.33903038741281
 11
138.07845232549298
 21
247.11548752272037
  0
LINE
  8
_8-c_Dimension_Machining
  6
CONTINUOUS
 62
    4
 10
135.18067484662578
 20
246.33903038741281
 11
138.07845232549298
 21
245.56257325210524
  0
LINE
  8
_8-c_Dimension_Machining
  6
CONTINUOUS
 62
    4
 10
147.88067484662577
 20
246.33903038741281
 11
144.98289736775857
 21
245.56257325210524
  0
LINE
  8
_8-c_Dimension_Machining
  6
CONTINUOUS
 62
    4
 10
147.88067484662577
 20
246.33903038741281
 11
144.98289736775857
 21
247.11548752272037
  0
LINE
  8
_8-c_Dimension_Machining
  6
CONTINUOUS
 62
    4
 10
135.18067484662578
 20
245.83903038741281
 11
135.18067484662578
 21
252.24202453987729
  0
LINE
  8
_8-c_Dimension_Machining
  6
CONTINUOUS
 62
    4
 10
147.88067484662577
 20
245.83903038741281
 11
147.88067484662577
 21
252.24202453987729
  0
TEXT
  8
_8-c_Dimension_Machining
 62
    4
 10
139.03067484662577
 20
247.33903038741281
 40
2.5
 41
1
 50
0
  1
12.7
  0
LINE
  8
_8-c_Dimension_Machining
  6
CONTINUOUS
 62
    4
 10
129.78275619366417
 20
255.24202453987729
 11
129.78275619366417
 21
267.94202453987725
  0
LINE
  8
_8-c_Dimension_Machining
  6
CONTINUOUS
 62
    4
 10
129.78275619366417
 20
255.24202453987729
 11
129.0062990583566
 21
258.13980201874449
  0
LINE
  8
_8-c_Dimension_Machining
  6
CONTINUOUS
 62
    4
 10
129.78275619366417
 20
255.24202453987729
 11
130.55921332897174
 21
258.13980201874449
  0
LINE
  8
_8-c_Dimension_Machining
  6
CONTINUOUS
 62
    4
 10
129.78275619366417
 20
267.94202453987725
 11
130.55921332897174
 21
265.04424706101008
  0
LINE
  8
_8-c_Dimension_Machining
  6
CONTINUOUS
 62
    4
 10
129.78275619366417
 20
267.94202453987725
 11
129.0062990583566
 21
265.04424706101008
  0
LINE
  8
_8-c_Dimension_Machining
  6
CONTINUOUS
 62
    4
 10
129.28275619366417
 20
255.24202453987729
 11
132.18067484662578
 21
255.24202453987729
  0
LINE
  8
_8-c_Dimension_Machining
  6
CONTINUOUS
 62
    4
 10
129.28275619366417
 20
267.94202453987725
 11
132.18067484662578
 21
267.94202453987725
  0
TEXT
  8
_8-c_Dimension_Machining
 62
    4
 10
128.78275619366417
 20
259.09202453987729
 40
2.5
 41
1
 50
90
  1
12.7
  0
ENDSEC
  0
EOF
